# xmcd CD database file
#
# Track frame offsets:
#	150
#	25820
#	47622
#	68720
#	85162
#	102565
#	123885
#	140450
#	159672
#
# Disc length: 2330 seconds
#
# Revision: 0
# Processed by: cddbd v1.5PL3 Copyright (c) Steve Scherf et al.
# Submitted via: CDex 1.51
#
DISCID=71091809
DTITLE=Ruby Andrews - Ruby
DYEAR=1993
DGENRE=Blues
TTITLE0=Dead to the Rights in the Wrong
TTITLE1=Getting Out of Your Bed and Getting into Your Head
TTITLE2=Footprints on the Ceiling
TTITLE3=Cheaters can't be Choosers
TTITLE4=Cassanova
TTITLE5=I don't Want to Wake Up
TTITLE6=Trying to Love Two
TTITLE7=When You Love Somebody
TTITLE8=Time ain't Healed the Pain
EXTD=YEAR: 1993
EXTT0=
EXTT1=
EXTT2=
EXTT3=
EXTT4=
EXTT5=
EXTT6=
EXTT7=
EXTT8=
PLAYORDER=
